<?xml version="1.0" encoding="UTF-8" standalone="no"?>
<svg
   height="26.544682mm"
   viewBox="0 0 45.555264 26.544682"
   width="45.555264mm"
   version="1.1"
   id="svg275"
   sodipodi:docname="nintendo-switch.svg"
   inkscape:version="1.1.1 (3bf5ae0d25, 2021-09-20)"
   xmlns:inkscape="http://www.inkscape.org/namespaces/inkscape"
   xmlns:sodipodi="http://sodipodi.sourceforge.net/DTD/sodipodi-0.dtd"
   xmlns="http://www.w3.org/2000/svg"
   xmlns:svg="http://www.w3.org/2000/svg">
  <defs
     id="defs279" />
  <sodipodi:namedview
     id="namedview277"
     pagecolor="#ffffff"
     bordercolor="#666666"
     borderopacity="1.0"
     inkscape:pageshadow="2"
     inkscape:pageopacity="0.0"
     inkscape:pagecheckerboard="0"
     inkscape:document-units="mm"
     showgrid="false"
     inkscape:zoom="5.871039"
     inkscape:cx="155.76459"
     inkscape:cy="48.798858"
     inkscape:window-width="1920"
     inkscape:window-height="1051"
     inkscape:window-x="-9"
     inkscape:window-y="-9"
     inkscape:window-maximized="1"
     inkscape:current-layer="svg275" />
  <g
     transform="translate(-26.715987,-25.930946)"
     id="g273">
    <g
       fill="#898989"
       id="g149">
      <path
         d="m 40.117447,26.434603 -0.624252,0.05374 0.795353,0.367393 7.290438,-0.0527 3.671461,0.0527 0.483862,-0.202028 0.422741,-0.192731 -2.134264,-0.113194 -7.730794,-0.0083 z"
         id="path145" />
      <path
         d="m 0,0 c 0.97,0 1.947,0.018 2.915,-0.069 0.882,-0.079 1.775,-0.298 2.525,-0.787 0.831,-0.543 1.467,-1.321 2.024,-2.13 0.603,-0.875 1.107,-1.814 1.588,-2.76 1.022,-2.008 1.947,-4.064 2.984,-6.066 0.834,-1.613 1.686,-3.225 2.631,-4.777 0.919,-1.506 1.938,-2.97 3.392,-4.003 1.503,-1.066 3.336,-1.637 5.18,-1.512 1.955,0.131 3.826,1.004 5.325,2.242 2.776,2.292 4.007,5.817 4.231,9.323 0.141,2.206 -0.03,4.435 -0.263,6.631 -0.185,1.74 -0.404,3.484 -0.689,5.211 -0.21,1.277 -0.421,2.554 -0.631,3.83 -0.368,2.226 -0.735,4.451 -1.104,6.678 -0.277,1.679 -0.554,3.359 -0.832,5.04 -0.367,2.229 -0.78,4.453 -1.212,6.672 -0.321,1.641 -0.665,3.275 -0.959,4.921 -0.375,2.109 -0.842,4.21 -1.362,6.288 -0.266,1.071 -0.559,2.136 -0.885,3.19 -0.165,0.529 -0.337,1.055 -0.521,1.577 -0.096,0.272 -0.194,0.544 -0.296,0.816 -0.097,0.255 -0.175,0.507 -0.341,0.726 -0.344,0.456 -0.687,0.912 -1.032,1.369 -0.179,0.238 -0.359,0.475 -0.536,0.712 -0.133,0.176 -0.296,0.428 -0.506,0.521 -0.824,0.362 -1.619,0.781 -2.395,1.24 -0.957,0.565 -1.897,1.16 -2.882,1.677 -0.977,0.511 -1.987,0.958 -3.023,1.335 -2.116,0.77 -4.323,1.245 -6.551,1.555 -2.295,0.32 -4.612,0.492 -6.923,0.633 -2.316,0.141 -4.636,0.232 -6.955,0.294 -4.627,0.125 -9.257,0.134 -13.886,0.134 -4.63,0 -9.26,-0.009 -13.887,-0.134 -2.32,-0.062 -4.639,-0.153 -6.955,-0.294 -2.313,-0.141 -4.629,-0.313 -6.924,-0.633 -2.226,-0.31 -4.435,-0.785 -6.551,-1.555 -1.035,-0.377 -2.046,-0.824 -3.022,-1.335 -0.985,-0.517 -1.925,-1.112 -2.883,-1.677 -0.774,-0.459 -1.57,-0.878 -2.394,-1.24 -0.21,-0.093 -0.374,-0.345 -0.505,-0.521 -0.18,-0.237 -0.358,-0.474 -0.537,-0.712 -0.344,-0.457 -0.689,-0.913 -1.034,-1.369 -0.165,-0.219 -0.244,-0.471 -0.339,-0.726 -0.102,-0.272 -0.2,-0.544 -0.296,-0.816 -0.183,-0.522 -0.357,-1.048 -0.521,-1.577 -0.328,-1.054 -0.619,-2.119 -0.887,-3.19 -0.517,-2.078 -0.985,-4.179 -1.361,-6.288 -0.294,-1.646 -0.638,-3.28 -0.958,-4.921 -0.433,-2.219 -0.845,-4.443 -1.214,-6.672 -0.277,-1.681 -0.554,-3.361 -0.832,-5.04 -0.367,-2.227 -0.734,-4.452 -1.101,-6.678 -0.211,-1.276 -0.422,-2.553 -0.633,-3.83 -0.285,-1.727 -0.504,-3.471 -0.688,-5.211 -0.233,-2.196 -0.404,-4.425 -0.263,-6.631 0.222,-3.506 1.455,-7.031 4.23,-9.323 1.499,-1.238 3.37,-2.111 5.324,-2.242 1.846,-0.125 3.678,0.446 5.18,1.512 1.456,1.033 2.475,2.497 3.393,4.003 0.947,1.552 1.796,3.164 2.632,4.777 1.036,2.002 1.961,4.058 2.984,6.066 0.481,0.946 0.985,1.885 1.587,2.76 0.558,0.809 1.193,1.587 2.025,2.13 0.75,0.489 1.643,0.708 2.525,0.787 C -43.927,0.018 -42.95,0 -41.979,0 Z"
         stroke="#231916"
         stroke-linecap="round"
         stroke-linejoin="round"
         stroke-width="0.35"
         transform="matrix(0.35277777,0,0,-0.35277777,53.17439,44.610093)"
         id="path147" />
    </g>
    <g
       id="g271">
      <path
         d="m 0,0 c -3.757,0 -6.804,3.046 -6.804,6.804 0,3.756 3.047,6.803 6.804,6.803 3.757,0 6.803,-3.047 6.803,-6.803 C 6.803,3.046 3.757,0 0,0"
         fill="#dcdddd"
         transform="matrix(0.35277777,0,0,-0.35277777,50.769717,41.603544)"
         id="path151" />
      <path
         d="m 0,0 c -3.758,0 -6.804,3.047 -6.804,6.804 0,3.758 3.046,6.803 6.804,6.803 3.757,0 6.803,-3.045 6.803,-6.803 C 6.803,3.047 3.757,0 0,0"
         fill="#dcdddd"
         transform="matrix(0.35277777,0,0,-0.35277777,35.269861,36.353929)"
         id="path153" />
      <path
         d="m 0,0 c 0,0.06 0.025,0.146 0.059,0.195 0.076,0.115 0.159,0.16 0.297,0.159 1.382,0 2.767,-0.002 4.151,-0.004 0.47,-0.002 0.85,0.379 0.85,0.848 v 1.73 1.728 c 0,0.471 -0.38,0.851 -0.85,0.85 C 3.123,5.504 1.738,5.502 0.356,5.5 0.159,5.5 0,5.658 0,5.854 c 0.002,1.384 0.004,2.768 0.006,4.152 0.002,0.47 -0.379,0.851 -0.849,0.851 -1.153,-10e-4 -2.305,-10e-4 -3.458,0 -0.47,0 -0.85,-0.381 -0.849,-0.851 0.002,-1.384 0.004,-2.768 0.006,-4.152 0,-0.145 -0.049,-0.231 -0.174,-0.305 C -5.365,5.521 -5.444,5.5 -5.499,5.5 -6.883,5.502 -8.267,5.504 -9.65,5.506 -10.121,5.507 -10.502,5.127 -10.502,4.656 V 2.928 1.198 c 0,-0.469 0.381,-0.85 0.852,-0.848 1.383,0.002 2.767,0.004 4.151,0.004 0.138,0.001 0.22,-0.044 0.296,-0.159 C -5.17,0.146 -5.144,0.06 -5.144,0 -5.146,-1.383 -5.148,-2.768 -5.15,-4.151 c -10e-4,-0.47 0.379,-0.851 0.849,-0.851 h 3.458 c 0.47,0 0.851,0.381 0.849,0.851 C 0.004,-2.768 0.002,-1.383 0,0"
         fill="#666565"
         transform="matrix(0.35277777,0,0,-0.35277777,40.802016,40.236178)"
         id="path155" />
      <path
         d="m 0,0 c 0,-2.201 -1.785,-3.986 -3.986,-3.986 -2.201,0 -3.987,1.785 -3.987,3.986 0,2.202 1.786,3.986 3.987,3.986 C -1.785,3.986 0,2.202 0,0"
         fill="#666565"
         transform="matrix(0.35277777,0,0,-0.35277777,54.263381,33.953699)"
         id="path157" />
      <path
         d="m 0,0 c 0,-2.201 1.785,-3.986 3.986,-3.986 2.201,0 3.987,1.785 3.987,3.986 0,2.201 -1.786,3.986 -3.987,3.986 C 1.785,3.986 0,2.201 0,0"
         fill="#666565"
         transform="matrix(0.35277777,0,0,-0.35277777,54.425976,36.528589)"
         id="path159" />
      <path
         d="M 0,0 C 0,2.202 1.784,3.986 3.985,3.986 6.187,3.986 7.972,2.202 7.972,0 7.972,-2.201 6.187,-3.986 3.985,-3.986 1.784,-3.986 0,-2.201 0,0"
         fill="#666565"
         transform="matrix(0.35277777,0,0,-0.35277777,57.401163,33.953699)"
         id="path161" />
      <path
         d="m 0,0 c 0,-2.202 -1.785,-3.986 -3.986,-3.986 -2.201,0 -3.987,1.784 -3.987,3.986 0,2.202 1.786,3.986 3.987,3.986 C -1.785,3.986 0,2.202 0,0"
         fill="#666565"
         transform="matrix(0.35277777,0,0,-0.35277777,57.238568,31.378492)"
         id="path163" />
      <path
         d="m 0,0 v 2.87 c 0,0.392 0.317,0.709 0.709,0.709 h 2.87 C 3.97,3.579 4.288,3.262 4.288,2.87 V 0 c 0,-0.392 -0.318,-0.708 -0.709,-0.708 H 0.709 C 0.317,-0.708 0,-0.392 0,0"
         fill="#666565"
         transform="matrix(0.35277777,0,0,-0.35277777,42.313387,34.459794)"
         id="path165" />
      <path
         d="M 0,0 C 0,1.331 1.078,2.408 2.409,2.408 3.74,2.408 4.819,1.331 4.819,0 4.819,-1.331 3.74,-2.41 2.409,-2.41 1.078,-2.41 0,-1.331 0,0"
         fill="#666565"
         transform="matrix(0.35277777,0,0,-0.35277777,49.619732,31.078455)"
         id="path167" />
      <path
         d="M 0,0 C 0,1.331 1.079,2.408 2.409,2.408 3.739,2.408 4.818,1.331 4.818,0 4.818,-1.331 3.739,-2.41 2.409,-2.41 1.079,-2.41 0,-1.331 0,0"
         fill="#666565"
         transform="matrix(0.35277777,0,0,-0.35277777,40.219792,31.078455)"
         id="path169" />
      <path
         d="m 0,0 c 0,-1.33 -1.078,-2.409 -2.41,-2.409 -1.33,0 -2.408,1.079 -2.408,2.409 0,1.331 1.078,2.411 2.408,2.411 C -1.078,2.411 0,1.331 0,0"
         fill="#666565"
         transform="matrix(0.35277777,0,0,-0.35277777,49.319659,33.953699)"
         id="path171" />
      <path
         d="M 0,0 C 3.287,0 5.952,2.665 5.952,5.952 5.952,9.24 3.287,11.906 0,11.906 -3.287,11.906 -5.952,9.24 -5.952,5.952 -5.952,2.665 -3.287,0 0,0"
         fill="#666565"
         transform="matrix(0.35277777,0,0,-0.35277777,50.769717,41.303824)"
         id="path173" />
      <path
         d="m 0,0 c 3.287,0 5.951,2.666 5.951,5.954 0,3.288 -2.664,5.953 -5.951,5.953 -3.288,0 -5.953,-2.665 -5.953,-5.953 C -5.953,2.666 -3.288,0 0,0"
         fill="#666565"
         transform="matrix(0.35277777,0,0,-0.35277777,35.269861,36.054174)"
         id="path175" />
      <path
         d="m 0,0 h 0.469 c 0.365,0 0.683,0.137 0.683,0.482 0,0.327 -0.234,0.489 -0.637,0.489 H 0 Z m 0,1.177 h 0.508 c 0.242,0 0.525,0.104 0.525,0.434 0,0.315 -0.269,0.434 -0.596,0.434 H 0 Z m -0.252,1.086 h 0.738 c 0.379,0 0.799,-0.137 0.799,-0.634 0,-0.26 -0.175,-0.473 -0.437,-0.533 V 1.09 C 1.17,1.055 1.408,0.83 1.408,0.469 1.408,0.056 1.055,-0.217 0.482,-0.217 h -0.734 z"
         fill="#ffffff"
         transform="matrix(0.35277777,0,0,-0.35277777,55.653819,36.88754)"
         id="path177" />
      <path
         d="M 0,0 H 1.092 L 0.546,1.317 Z M -0.365,-0.883 H -0.642 L 0.431,1.598 H 0.676 L 1.74,-0.883 H 1.461 L 1.188,-0.23 h -1.284 z"
         fill="#ffffff"
         transform="matrix(0.35277777,0,0,-0.35277777,58.613836,34.028136)"
         id="path179" />
      <path
         d="m 0,0 0.677,1.002 h 0.302 l -0.825,-1.181 0.911,-1.3 H 0.75 l -0.756,1.118 -0.754,-1.118 h -0.315 l 0.911,1.303 -0.83,1.178 h 0.314 z"
         fill="#ffffff"
         transform="matrix(0.35277777,0,0,-0.35277777,55.834336,31.292732)"
         id="path181" />
      <path
         d="M 0,0 H -0.253 V 1.068 L -1.181,2.48 h 0.316 L -0.119,1.278 0.634,2.48 H 0.929 L 0,1.068 Z"
         fill="#ffffff"
         transform="matrix(0.35277777,0,0,-0.35277777,52.902223,34.389168)"
         id="path183" />
      <path
         d="m 0,0 c 0.716,0.329 1.411,0.7 2.09,1.103 0.958,0.565 1.897,1.16 2.883,1.676 0.976,0.512 1.987,0.958 3.022,1.335 2.115,0.771 4.324,1.245 6.551,1.556 2.295,0.319 4.611,0.492 6.924,0.633 1.766,0.107 3.535,0.185 5.304,0.244 -0.957,0.419 -3.07,1.339 -4.031,1.751 l -0.002,10e-4 c -0.057,0.025 -0.115,0.05 -0.173,0.075 L 22.565,8.375 C 21.741,8.729 20.946,9.003 20.019,8.993 19.605,8.988 18.881,8.951 18.468,8.92 16.743,8.788 15.029,8.6 13.319,8.337 12.898,8.273 12.478,8.202 12.058,8.127 10.735,7.891 9.44,7.605 8.169,7.149 7.546,6.927 6.507,6.453 5.931,6.126 4.654,5.402 3.499,4.559 2.415,3.57 2.155,3.334 1.941,3.071 1.757,2.773 1.756,2.774 1.755,2.774 1.755,2.774 L 1.757,2.773 C 1.273,2.001 0.48,0.761 -0.013,-0.007 Z"
         fill="#666565"
         transform="matrix(0.35277777,0,0,-0.35277777,30.843276,29.165376)"
         id="path185" />
      <path
         d="m 0,0 c -0.716,0.329 -1.411,0.7 -2.09,1.103 -0.958,0.565 -1.897,1.16 -2.883,1.676 -0.976,0.512 -1.987,0.958 -3.022,1.335 -2.115,0.771 -4.324,1.245 -6.551,1.556 -2.295,0.319 -4.611,0.492 -6.924,0.633 -1.766,0.107 -3.535,0.185 -5.304,0.244 0.957,0.419 3.07,1.339 4.031,1.751 l 0.002,10e-4 c 0.057,0.025 0.115,0.05 0.173,0.075 l 0.003,10e-4 c 0.824,0.354 1.619,0.628 2.546,0.618 0.415,-0.005 1.138,-0.042 1.551,-0.073 1.725,-0.132 3.439,-0.32 5.149,-0.583 0.421,-0.064 0.842,-0.135 1.261,-0.21 1.323,-0.236 2.618,-0.522 3.889,-0.978 0.623,-0.222 1.662,-0.696 2.238,-1.023 1.277,-0.724 2.432,-1.567 3.516,-2.556 0.26,-0.236 0.474,-0.499 0.658,-0.797 10e-4,10e-4 0.002,10e-4 0.002,10e-4 L -1.757,2.773 c 0.484,-0.772 1.278,-2.012 1.77,-2.78 z"
         fill="#666565"
         transform="matrix(0.35277777,0,0,-0.35277777,60.695719,29.165376)"
         id="path187" />
      <path
         d="m 0,0 c -0.048,-0.084 -0.128,-0.084 -0.175,0 l -0.601,1.041 c -0.048,0.082 -0.008,0.15 0.088,0.15 h 1.201 c 0.096,0 0.135,-0.068 0.086,-0.15 z"
         fill="#ffffff"
         transform="matrix(0.35277777,0,0,-0.35277777,39.925222,41.285903)"
         id="path189" />
      <path
         d="M 0,0 C 0.048,0.083 0.128,0.083 0.176,0 L 0.774,-1.039 C 0.824,-1.124 0.784,-1.19 0.688,-1.19 h -1.201 c -0.095,0 -0.135,0.066 -0.088,0.151 z"
         fill="#ffffff"
         transform="matrix(0.35277777,0,0,-0.35277777,39.863239,37.163518)"
         id="path191" />
      <path
         d="m 0,0 c 0.082,-0.047 0.082,-0.126 0,-0.176 l -1.041,-0.599 c -0.084,-0.048 -0.151,-0.01 -0.151,0.086 v 1.202 c 0,0.096 0.067,0.135 0.151,0.089 z"
         fill="#ffffff"
         transform="matrix(0.35277777,0,0,-0.35277777,41.977472,39.172341)"
         id="path193" />
      <path
         d="M 0,0 C -0.084,0.048 -0.084,0.128 0,0.174 L 1.04,0.775 C 1.123,0.824 1.192,0.784 1.192,0.688 v -1.202 c 0,-0.095 -0.069,-0.135 -0.152,-0.087 z"
         fill="#ffffff"
         transform="matrix(0.35277777,0,0,-0.35277777,37.854029,39.233654)"
         id="path195" />
      <path
         d="m 0,0 h -0.439 v 0.984 h -0.985 v 0.44 h 0.985 V 2.408 H 0 V 1.424 H 0.984 V 0.984 H 0 Z"
         fill="#231916"
         transform="matrix(0.35277777,0,0,-0.35277777,50.544045,31.502882)"
         id="path197" />
      <path
         d="M 41.493919,31.162628 H 40.64443 v -0.15487 h 0.849489 z"
         fill="#231916"
         id="path199" />
      <path
         d="m 0,0 c 0,-0.062 -0.025,-0.087 -0.087,-0.087 h -0.695 c -0.061,0 -0.086,0.025 -0.086,0.087 v 0.521 c 0,0.062 0.025,0.087 0.086,0.087 h 0.695 C -0.028,0.608 -0.003,0.584 0,0.525 Z M 0.92,0.848 C 0.487,1.216 0.055,1.584 -0.378,1.951 -0.419,1.986 -0.45,1.986 -0.491,1.951 -0.923,1.584 -1.356,1.216 -1.788,0.848 -1.866,0.781 -1.835,0.695 -1.732,0.695 h 0.167 c 0.062,0 0.087,-0.025 0.087,-0.088 v -1.128 c 0,-0.063 0.026,-0.088 0.087,-0.088 h 1.913 c 0.061,0 0.086,0.025 0.086,0.088 v 1.128 c 0,0.063 0.026,0.088 0.088,0.088 h 0.167 c 0.103,0 0.135,0.086 0.057,0.153"
         fill="#231916"
         transform="matrix(0.35277777,0,0,-0.35277777,48.620665,34.131464)"
         id="path201" />
      <g
         stroke="#231916"
         stroke-width="0.35"
         id="g255">
        <path
           d="m 0,0 c 0,0.06 0.025,0.146 0.059,0.195 0.076,0.115 0.159,0.16 0.297,0.159 1.382,0 2.767,-0.002 4.151,-0.004 0.47,-0.002 0.85,0.379 0.85,0.848 v 1.73 1.728 c 0,0.471 -0.38,0.851 -0.85,0.85 C 3.123,5.504 1.738,5.502 0.356,5.5 0.159,5.5 0,5.658 0,5.854 c 0.002,1.384 0.004,2.768 0.006,4.152 0.002,0.47 -0.379,0.851 -0.849,0.851 -1.153,-10e-4 -2.305,-10e-4 -3.458,0 -0.47,0 -0.85,-0.381 -0.849,-0.851 0.002,-1.384 0.004,-2.768 0.006,-4.152 0,-0.145 -0.049,-0.231 -0.174,-0.305 C -5.365,5.521 -5.444,5.5 -5.499,5.5 -6.883,5.502 -8.267,5.504 -9.65,5.506 -10.121,5.507 -10.502,5.127 -10.502,4.656 V 2.928 1.198 c 0,-0.469 0.381,-0.85 0.852,-0.848 1.383,0.002 2.767,0.004 4.151,0.004 0.138,0.001 0.22,-0.044 0.296,-0.159 C -5.17,0.146 -5.144,0.06 -5.144,0 -5.146,-1.383 -5.148,-2.768 -5.15,-4.151 c -10e-4,-0.47 0.379,-0.851 0.849,-0.851 h 3.458 c 0.47,0 0.851,0.381 0.849,0.851 C 0.004,-2.768 0.002,-1.383 0,0 Z"
           fill="none"
           stroke-linecap="round"
           stroke-linejoin="round"
           transform="matrix(0.35277777,0,0,-0.35277777,40.802016,40.236178)"
           id="path203" />
        <path
           d="m 0,0 c 0,-1.839 1.492,-3.329 3.33,-3.329 1.84,0 3.332,1.49 3.332,3.329 C 6.662,1.84 5.17,3.331 3.33,3.331 1.492,3.331 0,1.84 0,0 Z"
           fill="none"
           stroke-linecap="round"
           stroke-linejoin="round"
           transform="matrix(0.35277777,0,0,-0.35277777,47.294644,33.953699)"
           id="path205" />
        <path
           d="m 0,0 c 0,-2.201 -1.785,-3.986 -3.986,-3.986 -2.201,0 -3.987,1.785 -3.987,3.986 0,2.202 1.786,3.986 3.987,3.986 C -1.785,3.986 0,2.202 0,0 Z"
           fill="none"
           stroke-linecap="round"
           stroke-linejoin="round"
           transform="matrix(0.35277777,0,0,-0.35277777,54.263381,33.953699)"
           id="path207" />
        <path
           d="m 0,0 c 0,-2.201 1.785,-3.986 3.986,-3.986 2.201,0 3.987,1.785 3.987,3.986 0,2.201 -1.786,3.986 -3.987,3.986 C 1.785,3.986 0,2.201 0,0 Z"
           fill="none"
           stroke-linecap="round"
           stroke-linejoin="round"
           transform="matrix(0.35277777,0,0,-0.35277777,54.425976,36.528589)"
           id="path209" />
        <path
           d="M 0,0 C 0,2.202 1.784,3.986 3.985,3.986 6.187,3.986 7.972,2.202 7.972,0 7.972,-2.201 6.187,-3.986 3.985,-3.986 1.784,-3.986 0,-2.201 0,0 Z"
           fill="none"
           stroke-linecap="round"
           stroke-linejoin="round"
           transform="matrix(0.35277777,0,0,-0.35277777,57.401163,33.953699)"
           id="path211" />
        <path
           d="m 0,0 c 0,-2.202 -1.785,-3.986 -3.986,-3.986 -2.201,0 -3.987,1.784 -3.987,3.986 0,2.202 1.786,3.986 3.987,3.986 C -1.785,3.986 0,2.202 0,0 Z"
           fill="none"
           stroke-linecap="round"
           stroke-linejoin="round"
           transform="matrix(0.35277777,0,0,-0.35277777,57.238568,31.378492)"
           id="button2"
           style="stroke-width:0.348661;stroke-miterlimit:4;stroke-dasharray:none"
           inkscape:label="" />
        <path
           d="M 0,0 V -0.008 H 0.015"
           fill="none"
           stroke-linecap="round"
           stroke-linejoin="round"
           transform="matrix(0.35277777,0,0,-0.35277777,43.694512,33.227471)"
           id="path215" />
        <path
           d="m 0,0 v 2.87 c 0,0.392 0.317,0.709 0.709,0.709 h 2.87 C 3.97,3.579 4.288,3.262 4.288,2.87 V 0 c 0,-0.392 -0.318,-0.708 -0.709,-0.708 H 0.709 C 0.317,-0.708 0,-0.392 0,0 Z"
           fill="none"
           stroke-linecap="round"
           stroke-linejoin="round"
           transform="matrix(0.35277777,0,0,-0.35277777,42.313387,34.459794)"
           id="path217" />
        <path
           d="M 0,0 C 0.492,0.768 1.286,2.008 1.77,2.78 L 1.768,2.781 c 0,0 10e-4,0 0.002,-0.001 0.184,0.298 0.398,0.561 0.658,0.797 1.084,0.988 2.239,1.832 3.515,2.556 0.577,0.327 1.616,0.801 2.239,1.023 1.271,0.455 2.566,0.741 3.888,0.978 0.42,0.075 0.841,0.145 1.262,0.21 1.71,0.262 3.424,0.451 5.148,0.583 0.414,0.031 1.137,0.068 1.551,0.073 0.928,0.01 1.723,-0.265 2.547,-0.618 l 0.003,-10e-4 c 0.058,-0.026 0.115,-0.05 0.173,-0.075 L 22.756,8.305 C 23.717,7.893 25.83,6.973 26.787,6.554"
           fill="none"
           stroke-linecap="round"
           stroke-linejoin="round"
           transform="matrix(0.35277777,0,0,-0.35277777,30.838796,29.167775)"
           id="path219" />
        <path
           d="m 0,0 c -3.757,0 -6.804,3.046 -6.804,6.804 0,3.756 3.047,6.803 6.804,6.803 3.757,0 6.803,-3.047 6.803,-6.803 C 6.803,3.046 3.757,0 0,0 Z"
           fill="none"
           stroke-linecap="round"
           stroke-linejoin="round"
           transform="matrix(0.35277777,0,0,-0.35277777,50.769717,41.603544)"
           id="path221" />
        <path
           d="M 0,0 C 0,1.331 1.078,2.408 2.409,2.408 3.74,2.408 4.819,1.331 4.819,0 4.819,-1.331 3.74,-2.41 2.409,-2.41 1.078,-2.41 0,-1.331 0,0 Z"
           fill="none"
           stroke-linecap="round"
           stroke-linejoin="round"
           transform="matrix(0.35277777,0,0,-0.35277777,49.619732,31.078455)"
           id="path223" />
        <path
           d="M 0,0 C 0,1.331 1.079,2.408 2.409,2.408 3.739,2.408 4.818,1.331 4.818,0 4.818,-1.331 3.739,-2.41 2.409,-2.41 1.079,-2.41 0,-1.331 0,0 Z"
           fill="none"
           stroke-linecap="round"
           stroke-linejoin="round"
           transform="matrix(0.35277777,0,0,-0.35277777,40.219792,31.078455)"
           id="path225" />
        <path
           d="m 0,0 c 0,-1.33 -1.078,-2.409 -2.41,-2.409 -1.33,0 -2.408,1.079 -2.408,2.409 0,1.331 1.078,2.411 2.408,2.411 C -1.078,2.411 0,1.331 0,0 Z"
           fill="none"
           stroke-linecap="round"
           stroke-linejoin="round"
           transform="matrix(0.35277777,0,0,-0.35277777,49.319659,33.953699)"
           id="path227" />
        <path
           d="m 0,0 c -3.758,0 -6.804,3.047 -6.804,6.804 0,3.758 3.046,6.803 6.804,6.803 3.757,0 6.803,-3.045 6.803,-6.803 C 6.803,3.047 3.757,0 0,0 Z"
           fill="none"
           stroke-linecap="round"
           stroke-linejoin="round"
           transform="matrix(0.35277777,0,0,-0.35277777,35.269861,36.353929)"
           id="path229" />
        <path
           d="m 0,0 c -0.023,-0.127 0.065,-0.328 0.129,-0.475 0.083,-0.189 0.174,-0.372 0.267,-0.556 0.24,-0.475 0.51,-0.935 0.781,-1.393 0.578,-0.978 1.169,-1.951 1.787,-2.904 1.255,-1.934 2.56,-3.834 3.889,-5.717 2.649,-3.755 5.403,-7.437 8.205,-11.08 1.057,-1.377 2.108,-2.76 3.275,-4.047 0.568,-0.627 1.143,-1.249 1.715,-1.873 0.275,-0.301 0.557,-0.598 0.847,-0.885 0.149,-0.146 0.299,-0.291 0.456,-0.428 0.092,-0.083 0.291,-0.284 0.408,-0.253"
           fill="none"
           stroke-linecap="round"
           stroke-linejoin="round"
           transform="matrix(0.35277777,0,0,-0.35277777,28.829268,34.428432)"
           id="path231" />
        <path
           d="m 0,0 c -0.49,0.768 -1.285,2.008 -1.768,2.78 l 0.001,0.001 c -0.001,0 -0.001,0 -0.001,-0.001 -0.185,0.298 -0.398,0.561 -0.658,0.797 -1.084,0.988 -2.24,1.832 -3.515,2.556 -0.577,0.327 -1.616,0.801 -2.241,1.023 -1.269,0.455 -2.566,0.741 -3.888,0.978 -0.42,0.075 -0.84,0.145 -1.262,0.21 -1.709,0.262 -3.423,0.451 -5.147,0.583 -0.414,0.031 -1.136,0.068 -1.551,0.073 -0.927,0.01 -1.722,-0.265 -2.548,-0.618 L -22.58,8.381 c -0.058,-0.026 -0.115,-0.05 -0.173,-0.075 l -0.003,-10e-4 c -0.961,-0.412 -3.072,-1.332 -4.031,-1.751"
           fill="none"
           stroke-linecap="round"
           stroke-linejoin="round"
           transform="matrix(0.35277777,0,0,-0.35277777,60.700199,29.167775)"
           id="path233" />
        <path
           d="m 0,0 c -4.652,0.222 -9.961,0.398 -14.617,0.413 -1.744,0.006 -5.234,0.005 -6.978,0 C -26.251,0.4 -31.559,0.222 -36.211,0"
           fill="#898989"
           stroke-linecap="round"
           stroke-linejoin="round"
           transform="matrix(0.35277777,0,0,-0.35277777,52.157051,26.460982)"
           id="path235" />
        <path
           d="m 0,0 c 0.023,-0.127 -0.066,-0.328 -0.129,-0.475 -0.082,-0.189 -0.174,-0.372 -0.267,-0.556 -0.241,-0.475 -0.51,-0.935 -0.781,-1.393 -0.577,-0.978 -1.169,-1.951 -1.788,-2.904 -1.254,-1.934 -2.56,-3.834 -3.888,-5.717 -2.649,-3.755 -5.403,-7.437 -8.204,-11.08 -1.058,-1.377 -2.109,-2.76 -3.275,-4.047 -0.568,-0.627 -1.144,-1.249 -1.715,-1.873 -0.276,-0.301 -0.557,-0.598 -0.848,-0.885 -0.148,-0.146 -0.299,-0.291 -0.456,-0.428 -0.092,-0.083 -0.292,-0.284 -0.409,-0.253"
           fill="none"
           stroke-linecap="round"
           stroke-linejoin="round"
           transform="matrix(0.35277777,0,0,-0.35277777,62.71008,34.428432)"
           id="path237" />
        <path
           d="m 0,0 c 0,-0.743 -0.602,-1.347 -1.345,-1.347 -0.744,0 -1.347,0.604 -1.347,1.347 0,0.743 0.603,1.347 1.347,1.347 C -0.602,1.347 0,0.743 0,0 Z"
           fill="none"
           stroke-miterlimit="10"
           transform="matrix(0.35277777,0,0,-0.35277777,43.541195,33.960967)"
           id="path239" />
        <path
           d="M 0,0 C 3.287,0 5.952,2.665 5.952,5.952 5.952,9.24 3.287,11.906 0,11.906 -3.287,11.906 -5.952,9.24 -5.952,5.952 -5.952,2.665 -3.287,0 0,0 Z"
           fill="none"
           stroke-linecap="round"
           stroke-linejoin="round"
           transform="matrix(0.35277777,0,0,-0.35277777,50.769717,41.303824)"
           id="path241" />
        <path
           d="m 0,0 c -2.491,0 -4.511,2.019 -4.511,4.51 0,2.492 2.02,4.511 4.511,4.511 2.491,0 4.51,-2.019 4.51,-4.51 C 4.51,2.019 2.491,0 0,0 Z"
           fill="none"
           stroke-linecap="round"
           stroke-linejoin="round"
           transform="matrix(0.35277777,0,0,-0.35277777,50.769717,40.794978)"
           id="path243" />
        <path
           d="m 0,0 c 3.287,0 5.951,2.666 5.951,5.954 0,3.288 -2.664,5.953 -5.951,5.953 -3.288,0 -5.953,-2.665 -5.953,-5.953 C -5.953,2.666 -3.288,0 0,0 Z"
           fill="none"
           stroke-linecap="round"
           stroke-linejoin="round"
           transform="matrix(0.35277777,0,0,-0.35277777,35.269861,36.054174)"
           id="path245" />
        <path
           d="M 0,0 C -2.492,0 -4.511,2.018 -4.511,4.51 -4.511,7 -2.492,9.019 0,9.019 2.49,9.019 4.51,7 4.51,4.51 4.51,2.018 2.49,0 0,0 Z"
           fill="none"
           stroke-linecap="round"
           stroke-linejoin="round"
           transform="matrix(0.35277777,0,0,-0.35277777,35.269861,35.544657)"
           id="path247" />
        <path
           d="m 0,0 c 0,4.695 -3.808,8.504 -8.504,8.504 -4.697,0 -8.504,-3.809 -8.504,-8.504 0,-4.697 3.807,-8.505 8.504,-8.505 C -3.808,-8.505 0,-4.697 0,0 Z"
           fill="none"
           stroke-linecap="round"
           stroke-linejoin="round"
           transform="matrix(0.35277777,0,0,-0.35277777,38.269531,33.953382)"
           id="path249" />
        <path
           d="m 0,0 c 0,-4.696 3.808,-8.504 8.505,-8.504 4.695,0 8.504,3.808 8.504,8.504 0,4.697 -3.809,8.504 -8.504,8.504 C 3.808,8.504 0,4.697 0,0 Z"
           fill="none"
           stroke-linecap="round"
           stroke-linejoin="round"
           transform="matrix(0.35277777,0,0,-0.35277777,47.769377,39.203703)"
           id="path251" />
        <path
           d="M 0,0 C -0.439,0.107 -0.85,0.419 -1.223,0.664 -1.62,0.924 -2.01,1.197 -2.408,1.457 -3.331,2.062 -4.296,2.59 -5.283,3.08 c -1.965,0.978 -3.962,1.824 -6.084,2.397 -4.296,1.158 -8.777,1.511 -13.202,1.77 -9.146,0.534 -18.336,0.47 -27.494,0.39 C -56.676,7.596 -61.29,7.488 -65.895,7.195 -70.338,6.914 -74.846,6.518 -79.128,5.23 -81.069,4.646 -82.91,3.813 -84.715,2.896 c -0.9,-0.458 -1.777,-0.957 -2.621,-1.514 -0.389,-0.257 -0.771,-0.523 -1.162,-0.778 -0.193,-0.125 -0.389,-0.249 -0.589,-0.362 -0.061,-0.035 -0.535,-0.215 -0.543,-0.246"
           fill="none"
           stroke-linecap="round"
           stroke-linejoin="round"
           transform="matrix(0.35277777,0,0,-0.35277777,61.579039,30.189243)"
           id="path253" />
      </g>
      <path
         d="m 161.14532,100.01397 c 0.12515,-5.7e-4 0.32993,-5.7e-4 0.45508,0 0.12515,5.8e-4 0.0228,0.001 -0.22754,0.001 -0.25029,0 -0.35269,-4.6e-4 -0.22754,-0.001 z"
         fill="#7f7f7f"
         stroke-width="0.003906"
         transform="scale(0.26458333)"
         id="path257" />
      <path
         d="m 161.44976,100.01398 c 0.0369,-6.4e-4 0.0984,-6.4e-4 0.13671,0 0.0383,6.4e-4 0.008,10e-4 -0.0671,10e-4 -0.0752,1e-5 -0.10651,-5.2e-4 -0.0696,-10e-4 z"
         fill="#7f7f7f"
         stroke-width="0.003906"
         transform="scale(0.26458333)"
         id="path259" />
      <path
         d="m 161.2879,100.01398 c 0.0381,-6.4e-4 0.10054,-6.4e-4 0.13867,0 0.0381,6.4e-4 0.007,10e-4 -0.0693,10e-4 -0.0763,0 -0.10747,-5.2e-4 -0.0693,-10e-4 z"
         fill="#7f7f7f"
         stroke-width="0.003906"
         transform="scale(0.26458333)"
         id="path261" />
      <path
         d="m 161.43648,100.01401 c 0.0124,-7.8e-4 0.0318,-7.7e-4 0.043,2e-5 0.0112,7.8e-4 0.001,10e-4 -0.0226,10e-4 -0.0236,-10e-6 -0.0328,-6.5e-4 -0.0204,-10e-4 z"
         fill="#7f7f7f"
         stroke-width="0.003906"
         transform="scale(0.26458333)"
         id="path263" />
      <path
         d="m 161.39545,100.01402 c 0.0113,-7.9e-4 0.0289,-7.8e-4 0.0391,2e-5 0.0101,8e-4 8.5e-4,0.001 -0.0206,0.001 -0.0215,-1e-5 -0.0298,-6.7e-4 -0.0184,-0.001 z"
         fill="#7f7f7f"
         stroke-width="0.003906"
         transform="scale(0.26458333)"
         id="path265" />
      <path
         d="m 161.43048,100.01415 c 0.005,-9.3e-4 0.0127,-9.3e-4 0.0176,0 0.005,9.3e-4 8.8e-4,0.002 -0.009,0.002 -0.01,0 -0.0136,-7.6e-4 -0.009,-0.002 z"
         fill="#7f7f7f"
         stroke-width="0.003906"
         transform="scale(0.26458333)"
         id="path267" />
      <path
         d="m 161.4325,100.0142 c 0.004,-9.9e-4 0.009,-9.3e-4 0.0117,1.4e-4 0.003,10e-4 -4.6e-4,0.002 -0.007,0.002 -0.006,-8e-5 -0.009,-9.5e-4 -0.005,-0.002 z"
         fill="#7f7f7f"
         stroke-width="0.003906"
         transform="scale(0.26458333)"
         id="path269" />
    </g>
  </g>
  <path
     style="fill:none;stroke:#000000;stroke-width:0.264583px;stroke-linecap:butt;stroke-linejoin:miter;stroke-opacity:1"
     d="m 30.52258,5.4475459 c 8.504441,0.050487 8.498808,0.050487 8.498808,0.050487"
     id="path470" />
  <text
     xml:space="preserve"
     style="font-style:normal;font-weight:normal;font-size:1.41111px;line-height:1.25;font-family:sans-serif;fill:#000000;fill-opacity:1;stroke:none;stroke-width:0.264583"
     x="39.251747"
     y="5.9890342"
     id="text11195"><tspan
       sodipodi:role="line"
       id="tspan11193"
       style="font-size:1.41111px;stroke-width:0.264583"
       x="39.251747"
       y="5.9890342">Button 0</tspan></text>
  <rect
     id="rect26410"
     width="6.8114352"
     height="1.8004495"
     x="38.693733"
     y="4.6046896"
     style="fill:#323232;fill-opacity:1;stroke-width:0.265;stroke-miterlimit:4;stroke-dasharray:none;paint-order:markers fill stroke"
     ry="0.23659569" />
  <rect
     id="rect26410-4"
     width="6.8114352"
     height="1.8004495"
     x="38.693733"
     y="4.6046896"
     style="fill:none;fill-opacity:1;stroke:#e000ff;stroke-width:0.100189;stroke-miterlimit:4;stroke-dasharray:none;stroke-opacity:1;paint-order:markers fill stroke"
     ry="0.23659569" />
</svg>
