<svg width="32" height="32" viewBox="0 0 32 32" fill="none" xmlns="http://www.w3.org/2000/svg">
<path d="M16.5 7C10.9611 7 5.83183 10.0831 3.11601 15.0466C2.96133 15.3279 2.96133 15.6721 3.11601 15.9534C5.83271 20.9169 10.9611 24 16.5 24C22.0389 24 27.1673 20.9169 29.884 15.9534C30.0387 15.6721 30.0387 15.3279 29.884 15.0466C27.1682 10.0831 22.0389 7 16.5 7ZM16.5 22.1502C11.7812 22.1502 7.3998 19.615 4.94326 15.5C7.3998 11.385 11.7812 8.84975 16.5 8.84975C21.2189 8.84975 25.6002 11.385 28.0567 15.5C25.6002 19.615 21.2189 22.1502 16.5 22.1502Z" fill="white"/>
<path d="M16.5 10C13.4671 10 11 12.4671 11 15.5C11 18.5329 13.4671 21 16.5 21C19.5329 21 22 18.5329 22 15.5C22 12.4671 19.5329 10 16.5 10ZM16.5 19.1667C14.4778 19.1667 12.8333 17.5218 12.8333 15.5C12.8333 13.4782 14.4778 11.8333 16.5 11.8333C18.5222 11.8333 20.1667 13.4782 20.1667 15.5C20.1667 17.5218 18.5222 19.1667 16.5 19.1667Z" fill="white"/>
</svg>
